<svg xmlns="http://www.w3.org/2000/svg" xmlns:xlink="http://www.w3.org/1999/xlink" width="48" height="48" viewBox="0 0 48 48">
  <defs>
    <clipPath id="clip-path">
      <path id="Path_1181" data-name="Path 1181" d="M13.619,14.9a6.547,6.547,0,0,0-3.32,2.322,1.667,1.667,0,0,0-.3.945v3.5a1.666,1.666,0,0,0,1.667,1.667H25a1.667,1.667,0,0,0,1.667-1.667v-3.5a1.664,1.664,0,0,0-.4-1.079A6.627,6.627,0,0,0,23.052,14.9a14.681,14.681,0,0,0-4.717-.733,14.67,14.67,0,0,0-4.715.733m-10-2.5A6.558,6.558,0,0,0,.3,14.722a1.691,1.691,0,0,0-.3.947v3.5a1.665,1.665,0,0,0,1.665,1.665H8.333v-2.5H2.5V15.952a4.549,4.549,0,0,1,1.941-1.193,12.138,12.138,0,0,1,3.887-.592,13.646,13.646,0,0,1,2.538.233,9.782,9.782,0,0,1,2.2-1.074,12.9,12.9,0,0,1,1.256-.368A8.921,8.921,0,0,0,13.05,12.4a14.671,14.671,0,0,0-4.717-.731,14.657,14.657,0,0,0-4.713.731M14.168,6.945c0,3.054,1.922,5.554,4.166,5.554S22.5,10,22.5,6.945,20.636,2.5,18.334,2.5s-4.166,1.388-4.166,4.445m-5.942.543C7.16,7.275,6.667,5.353,6.667,4.444c0-1.236.365-1.945,1.665-1.945S10,3.209,10,4.444c0,.908-.491,2.83-1.559,3.044a.417.417,0,0,1-.108.011.412.412,0,0,1-.106-.011M8.333,0c-2.3,0-4.164,1.39-4.164,4.445S6.09,10,8.333,10,12.5,7.5,12.5,4.444,10.634,0,8.333,0Z" transform="translate(0 0.001)" fill="#fff"/>
    </clipPath>
  </defs>
  <g id="icon-side-tool-3" transform="translate(-31 -560)">
    <rect id="Rectangle_340" data-name="Rectangle 340" width="48" height="48" transform="translate(31 560)" fill="rgba(255,255,255,0)"/>
    <g id="Group_3081" data-name="Group 3081" transform="translate(42 572.001)">
      <g id="Group_3080" data-name="Group 3080" transform="translate(0 -0.001)" clip-path="url(#clip-path)">
        <rect id="Rectangle_6668" data-name="Rectangle 6668" width="26.669" height="23.336" transform="translate(0 0.001)" fill="#fff"/>
      </g>
    </g>
  </g>
</svg>
