<svg xmlns="http://www.w3.org/2000/svg" width="48" height="48" viewBox="0 0 48 48">
  <g id="icon-side-tool-5" transform="translate(-31.445 -698)">
    <rect id="Rectangle_340" data-name="Rectangle 340" width="48" height="48" transform="translate(31.445 698)" fill="rgba(255,255,255,0)"/>
    <g id="Group_3083" data-name="Group 3083" transform="translate(41.702 708.36)">
      <path id="Path_1075" data-name="Path 1075" d="M.495,3.036H5.073V5.718a2.192,2.192,0,0,0,4.385,0V3.036h7.653V5.718a2.192,2.192,0,0,0,4.384,0V3.036h4.579a.5.5,0,0,1,.5.5V13.3a7.836,7.836,0,0,0-1.556-.572V9.471a.284.284,0,0,0-.283-.283H1.838a.283.283,0,0,0-.283.283V22.652a.284.284,0,0,0,.283.283h13.8a7.833,7.833,0,0,0,.736,1.556H.495A.5.5,0,0,1,0,24V3.531a.5.5,0,0,1,.495-.5M17.889,1.415a1.414,1.414,0,1,1,2.829,0v4.3a1.414,1.414,0,0,1-2.829,0Zm-12.037,0a1.415,1.415,0,1,1,2.829,0v4.3a1.415,1.415,0,0,1-2.829,0Zm3.9,9.227h2.967v2.967H9.755Zm4.092,0h2.967v2.967H13.847Zm4.092,0h2.967V12.8a7.837,7.837,0,0,0-1.861.81H17.939ZM5.663,14.682H8.63v2.967H5.663Zm4.092,0h2.967v2.967H9.755Zm4.092,0h2.967v.925a7.855,7.855,0,0,0-1.121,2.042H13.847ZM5.663,18.723H8.63V21.69H5.663Zm4.092,0h2.967V21.69H9.755Zm4.092,0h1.537a7.905,7.905,0,0,0-.062,2.967H13.847Zm9.241,2.666-.878-1.521H19.558l2.2,3.817h2.652l5.493-9.514H27.255l-4.167,7.217m0-7.932a6.878,6.878,0,0,1,3.352.867l-1,1.736a4.9,4.9,0,1,0,2.379,2.993l1.247-2.159a6.912,6.912,0,1,1-5.976-3.436" transform="translate(0 0)" fill="#fff" fill-rule="evenodd"/>
      <path id="Path_1163" data-name="Path 1163" d="M36.45,32.5l-.878-1.521H32.92l2.2,3.817h2.652l5.493-9.514H40.616L36.45,32.5m0-7.932a6.878,6.878,0,0,1,3.352.867l-1,1.736a4.9,4.9,0,1,0,2.379,2.993l1.247-2.159a6.912,6.912,0,1,1-5.976-3.436" transform="translate(-13.362 -11.116)" fill="#fff" fill-rule="evenodd"/>
    </g>
  </g>
</svg>
