<svg xmlns="http://www.w3.org/2000/svg" xmlns:xlink="http://www.w3.org/1999/xlink" width="48" height="48" viewBox="0 0 48 48">
  <defs>
    <clipPath id="clip-path">
      <rect id="Rectangle_6671" data-name="Rectangle 6671" width="30" height="28.196" fill="#fff"/>
    </clipPath>
  </defs>
  <g id="icon-side-tool-2" transform="translate(-31 -489)">
    <rect id="Rectangle_340" data-name="Rectangle 340" width="48" height="48" transform="translate(31 489)" fill="rgba(255,255,255,0)"/>
    <g id="Group_3090" data-name="Group 3090" transform="translate(40 499)">
      <g id="Group_3089" data-name="Group 3089" clip-path="url(#clip-path)">
        <path id="Path_1185" data-name="Path 1185" d="M5.523,28.2H21.769a5.529,5.529,0,0,0,5.523-5.523V14.119L23.83,17.583v5.091a2.064,2.064,0,0,1-2.061,2.061H5.523a2.064,2.064,0,0,1-2.061-2.061V5.523A2.064,2.064,0,0,1,5.523,3.461H21.769a2.072,2.072,0,0,1,.252.017L24.671.827A5.486,5.486,0,0,0,21.769,0H5.523A5.529,5.529,0,0,0,0,5.523V22.674A5.529,5.529,0,0,0,5.523,28.2" fill="#fff"/>
        <path id="Path_1186" data-name="Path 1186" d="M45.57,33.185l-5.608-5.609L36.234,31.3l9.336,9.346L60.534,25.676l-3.727-3.727Z" transform="translate(-30.534 -18.496)" fill="#fff"/>
      </g>
    </g>
  </g>
</svg>
