<svg xmlns="http://www.w3.org/2000/svg" width="48" height="48" viewBox="0 0 48 48">
  <g id="icon-side-tool-4" transform="translate(-31.445 -629)">
    <rect id="Rectangle_340" data-name="Rectangle 340" width="48" height="48" transform="translate(31.445 629)" fill="rgba(255,255,255,0)"/>
    <g id="Group_3082" data-name="Group 3082" transform="translate(-107.812 -901.131)">
      <path id="Path_1161" data-name="Path 1161" d="M24.613,11.737a1.593,1.593,0,1,1,1.593-1.593,1.593,1.593,0,0,1-1.593,1.593m-8.9-3.185a1.593,1.593,0,1,0,1.593,1.592,1.592,1.592,0,0,0-1.593-1.592m4.45,0a1.593,1.593,0,1,0,1.593,1.592,1.592,1.592,0,0,0-1.593-1.592m9.818,7.331a11.085,11.085,0,0,1-1.033.946l.823,5.676L23.9,19.314a15.2,15.2,0,0,1-3.76.469c-6.835,0-12.376-4.429-12.376-9.891S13.3,0,20.137,0,32.513,4.429,32.513,9.892a8.656,8.656,0,0,1-2.531,5.991m-9.846,1.88a13.046,13.046,0,0,0,4.471-.773,10.028,10.028,0,0,0,4.265-2.881,6.534,6.534,0,0,0,1.619-4.217c0-4.34-4.645-7.871-10.355-7.871S9.782,5.552,9.782,9.892s4.645,7.871,10.355,7.871m0,3.156a15.149,15.149,0,0,1-9.46-3.145A10.064,10.064,0,0,1,6.627,9.892,9.337,9.337,0,0,1,7.822,5.341C3.241,6.791,0,10.361,0,14.536a8.66,8.66,0,0,0,2.53,5.992,11.109,11.109,0,0,0,1.032.946l-.821,5.676,5.876-3.19a15.254,15.254,0,0,0,3.759.467,13.741,13.741,0,0,0,9.559-3.609,16.488,16.488,0,0,1-1.8.1" transform="translate(147 1540.556)" fill="#fff"/>
      <path id="Path_1162" data-name="Path 1162" d="M20.137,24.564a15.149,15.149,0,0,1-9.46-3.145,10.064,10.064,0,0,1-4.051-7.881A9.337,9.337,0,0,1,7.822,8.988C3.241,10.438,0,14.007,0,18.183a8.66,8.66,0,0,0,2.53,5.992,11.109,11.109,0,0,0,1.032.946L2.741,30.8l5.876-3.19a15.254,15.254,0,0,0,3.759.467,13.741,13.741,0,0,0,9.559-3.609,16.488,16.488,0,0,1-1.8.1" transform="translate(147 1536.91)" fill="#fff"/>
    </g>
  </g>
</svg>
