<svg xmlns="http://www.w3.org/2000/svg" xmlns:xlink="http://www.w3.org/1999/xlink" width="48" height="48" viewBox="0 0 48 48">
  <defs>
    <clipPath id="clip-path">
      <rect id="Rectangle_6670" data-name="Rectangle 6670" width="26.189" height="20.308" transform="translate(0 0)" fill="#fff"/>
    </clipPath>
  </defs>
  <g id="icon-side-tool-8" transform="translate(-31.094 -909.154)">
    <rect id="Rectangle_340" data-name="Rectangle 340" width="48" height="48" transform="translate(31.094 909.154)" fill="rgba(255,255,255,0)"/>
    <g id="Group_3088" data-name="Group 3088" transform="translate(182 824)">
      <g id="Group_3087" data-name="Group 3087" transform="translate(-140 99)" clip-path="url(#clip-path)">
        <path id="Path_1183" data-name="Path 1183" d="M10.5,30.231a6.771,6.771,0,0,1-.459-.507l-.181.181L8.553,31.213a3.4,3.4,0,0,1-4.8,0L3.7,31.157a3.4,3.4,0,0,1,0-4.8l4.8-4.8c.079-.079.162-.153.246-.223.035-.028.071-.053.107-.08.051-.038.1-.077.153-.113s.1-.061.147-.09.081-.05.122-.072c.06-.032.12-.061.181-.089.032-.015.063-.031.1-.044.069-.03.14-.057.211-.082l.071-.025c.079-.026.158-.048.239-.069l.046-.011c.088-.02.175-.038.264-.051l.022,0c.1-.014.19-.025.286-.03a3.385,3.385,0,0,1,2.611.983l.056.056a3.37,3.37,0,0,1,.728,1.088c.021.051.039.1.058.154s.029.078.041.118.032.1.046.156.02.083.03.125.024.1.033.154.02.132.029.2.013.129.017.194.006.1.007.15,0,.094,0,.141,0,.107-.007.16-.005.085-.01.128c-.01.09-.022.18-.039.269-.006.029-.014.059-.02.089-.014.067-.03.133-.049.2-.01.036-.021.072-.033.107q-.029.094-.065.186c-.012.032-.023.063-.036.095-.038.09-.078.178-.123.265l-.02.034c-.041.078-.086.153-.134.228-.017.027-.035.053-.054.079-.041.061-.085.121-.132.18-.019.025-.038.049-.058.073-.066.079-.135.158-.21.232l-.059.059-.453.454a2.791,2.791,0,0,0,.421.545l.056.056a2.777,2.777,0,0,0,1.841.809l.047.047.041-.042.018-.018c.14-.14.27-.286.393-.435.041-.049.077-.1.116-.151.079-.1.157-.205.228-.311.042-.062.081-.125.12-.188.061-.1.12-.2.176-.3q.056-.1.108-.208c.049-.1.1-.2.139-.3.031-.072.062-.145.091-.219.039-.1.074-.2.107-.308.024-.074.05-.148.071-.223.031-.109.055-.218.08-.328.016-.071.035-.14.049-.212q.048-.259.075-.521c.009-.083.01-.166.015-.25s.013-.2.014-.293,0-.19-.007-.286-.006-.171-.012-.257-.02-.2-.032-.3c-.01-.08-.021-.16-.035-.239-.017-.1-.036-.2-.059-.3-.016-.075-.035-.149-.054-.224-.027-.1-.055-.207-.087-.309-.022-.068-.047-.135-.071-.2-.038-.106-.075-.212-.118-.317-.022-.051-.047-.1-.071-.152A6.059,6.059,0,0,0,15.264,19.7l-.056-.056a6.05,6.05,0,0,0-2.194-1.4h0a6.1,6.1,0,0,0-1.208-.309l-.078-.011a6.144,6.144,0,0,0-1.135-.048l-.14.006c-.1.008-.207.019-.311.031-.069.008-.139.019-.208.03-.093.015-.187.029-.279.048-.147.03-.295.066-.44.107-.069.02-.137.044-.206.066-.1.033-.2.067-.3.105-.066.025-.132.052-.2.08-.117.049-.233.1-.347.16-.043.021-.086.04-.128.062-.153.081-.3.171-.45.266-.044.028-.085.059-.128.088q-.168.116-.331.243c-.043.033-.085.067-.127.1-.141.118-.281.241-.414.374l-4.8,4.8a6.105,6.105,0,0,0,0,8.624l.056.056a6.1,6.1,0,0,0,8.624,0l1.308-1.308.36-.36a6.675,6.675,0,0,1-1.575-1.169Z" transform="translate(0 -14.599)" fill="#fff"/>
        <path id="Path_1184" data-name="Path 1184" d="M56.584,1.783,54.917,3.451A6.676,6.676,0,0,1,56.492,4.62l.056.056a6.736,6.736,0,0,1,.459.507L58.5,3.695a3.4,3.4,0,0,1,4.8,0l.056.056a3.4,3.4,0,0,1,0,4.8l-2.491,2.491-2.309,2.309c-.079.079-.162.153-.246.223-.035.028-.072.053-.107.08-.051.038-.1.077-.153.112s-.1.061-.148.091-.08.049-.121.072c-.06.032-.12.061-.181.089-.032.015-.063.031-.1.044-.069.03-.14.057-.211.082l-.071.025c-.079.026-.159.049-.239.069l-.046.011q-.131.031-.264.051l-.022,0c-.095.014-.19.025-.285.03a3.385,3.385,0,0,1-2.611-.983L53.7,13.3a3.369,3.369,0,0,1-.761-1.174c-.018-.048-.038-.1-.055-.146-.027-.081-.051-.162-.072-.244-.008-.033-.014-.067-.021-.1-.013-.059-.026-.118-.035-.177-.005-.031-.009-.063-.013-.095-.009-.065-.016-.129-.021-.193,0-.026,0-.051-.005-.077,0-.078-.007-.156-.005-.234,0-.012,0-.024,0-.037a3.392,3.392,0,0,1,.671-1.952l0,0a3.414,3.414,0,0,1,.32-.371l.512-.513a2.791,2.791,0,0,0-.421-.545l-.056-.056A2.783,2.783,0,0,0,51.8,6.566l-.018.018a6.044,6.044,0,0,0-1.453,2.339c0,.007,0,.014-.007.021-.055.163-.1.327-.143.493-.007.027-.012.054-.019.082-.033.146-.062.292-.085.44-.007.042-.012.083-.018.125q-.026.2-.04.4c0,.054-.007.107-.01.161,0,.121-.005.241,0,.361,0,.064,0,.128,0,.192.005.109.016.217.027.326.007.073.014.147.023.22.014.1.032.191.05.286s.029.167.048.25.041.15.061.225a6.06,6.06,0,0,0,.458,1.185c.011.022.02.044.032.066.061.115.129.226.2.338.022.036.042.074.065.11h0a6.07,6.07,0,0,0,.809,1.007l.056.056a6.053,6.053,0,0,0,2.194,1.4h0a6.09,6.09,0,0,0,1.208.309l.078.011a6.146,6.146,0,0,0,1.135.049l.14-.006c.1-.008.207-.019.311-.032.069-.008.139-.019.208-.03.093-.015.187-.029.28-.048.147-.03.295-.066.44-.107.069-.02.137-.044.206-.066.1-.033.2-.067.3-.105.066-.025.132-.052.2-.08.117-.05.232-.1.346-.161.042-.021.086-.04.128-.063.153-.081.3-.17.45-.266.043-.028.085-.058.128-.087.112-.077.223-.158.331-.243.043-.033.085-.067.127-.1.142-.118.281-.241.414-.374l2.309-2.309,2.491-2.491a6.1,6.1,0,0,0,0-8.624l-.056-.056a6.105,6.105,0,0,0-8.624,0" transform="translate(-40.859 0)" fill="#fff"/>
      </g>
    </g>
  </g>
</svg>
