<svg xmlns="http://www.w3.org/2000/svg" xmlns:xlink="http://www.w3.org/1999/xlink" width="48" height="48" viewBox="0 0 48 48">
  <defs>
    <clipPath id="clip-path">
      <path id="Path_1182" data-name="Path 1182" d="M3.836,18.9H6.162a16.893,16.893,0,0,0,1.6,4.271l0,0A11.234,11.234,0,0,1,3.836,18.9m6.176,3.034a13.88,13.88,0,0,1-1.2-3.034h3.64v5.686a6.311,6.311,0,0,1-2.443-2.652M15.032,18.9H18.67a13.69,13.69,0,0,1-1.195,3.034,6.311,6.311,0,0,1-2.443,2.652Zm4.7,4.271a16.894,16.894,0,0,0,1.6-4.271h2.326a11.249,11.249,0,0,1-3.924,4.275ZM2.578,13.743a11.3,11.3,0,0,1,.3-2.576H5.723a23.781,23.781,0,0,0,0,5.153H2.875a11.287,11.287,0,0,1-.3-2.578m5.583,0a21.167,21.167,0,0,1,.155-2.576h4.139v5.153H8.316a21.152,21.152,0,0,1-.155-2.578m6.872-2.576h4.139a21.168,21.168,0,0,1,.155,2.576,21.152,21.152,0,0,1-.155,2.578H15.032ZM21.9,13.743a23.033,23.033,0,0,0-.142-2.576H24.61a11.245,11.245,0,0,1,0,5.153H21.762a23.093,23.093,0,0,0,.142-2.578M7.76,4.317l0,0a16.893,16.893,0,0,0-1.6,4.271H3.836A11.228,11.228,0,0,1,7.76,4.317m11.969,0,0,0A11.243,11.243,0,0,1,23.651,8.59H21.325a16.894,16.894,0,0,0-1.6-4.271M10.011,5.558A6.317,6.317,0,0,1,12.455,2.9V8.59H8.815a13.825,13.825,0,0,1,1.2-3.032M15.032,2.9a6.317,6.317,0,0,1,2.443,2.654A13.636,13.636,0,0,1,18.67,8.59H15.032ZM13.743,0A13.744,13.744,0,1,0,27.487,13.743,13.746,13.746,0,0,0,13.743,0Z" fill="#fff"/>
    </clipPath>
  </defs>
  <g id="icon-side-tool-7" transform="translate(-31.445 -839.245)">
    <rect id="Rectangle_340" data-name="Rectangle 340" width="48" height="48" transform="translate(31.445 839.245)" fill="rgba(255,255,255,0)"/>
    <g id="Group_3086" data-name="Group 3086" transform="translate(41.702 849.255)">
      <g id="Group_3085" data-name="Group 3085" clip-path="url(#clip-path)">
        <rect id="Rectangle_6669" data-name="Rectangle 6669" width="27.487" height="27.489" transform="translate(0 -0.001)" fill="#fff"/>
      </g>
    </g>
  </g>
</svg>
