<svg xmlns="http://www.w3.org/2000/svg" width="25" height="25" viewBox="0 0 25 25">
  <g id="服務電話" transform="translate(-397 -540)">
    <rect id="Rectangle_6991" data-name="Rectangle 6991" width="25" height="25" transform="translate(397 540)" opacity="0"/>
    <path id="Fill_136" data-name="Fill 136" d="M22.667,24a22.529,22.529,0,0,1-8.824-1.781,22.588,22.588,0,0,1-7.2-4.857A22.6,22.6,0,0,1,0,1.333,1.335,1.335,0,0,1,1.333,0H6A1.335,1.335,0,0,1,7.333,1.333a15.169,15.169,0,0,0,.76,4.76A1.277,1.277,0,0,1,7.76,7.427L4.826,10.373a20.176,20.176,0,0,0,8.786,8.786l2.934-2.933a1.357,1.357,0,0,1,.946-.383,1.379,1.379,0,0,1,.414.064,15.152,15.152,0,0,0,4.76.76A1.335,1.335,0,0,1,24,18v4.667A1.335,1.335,0,0,1,22.667,24ZM24,12H21.334A9.344,9.344,0,0,0,12,2.666V0A12,12,0,0,1,24,12Zm-5.333,0H16a4,4,0,0,0-4-4V5.333A6.674,6.674,0,0,1,18.667,12Z" transform="translate(397.428 541)" fill="#fff"/>
  </g>
</svg>
