<svg xmlns="http://www.w3.org/2000/svg" width="157.89" height="123.625" viewBox="0 0 157.89 123.625">
  <g id="臺中所_footer" transform="translate(-130.497 -881.635)">
    <path id="Path_146" data-name="Path 146" d="M-76.735-6.13h-2.4V-7h5.79v.87h-2.4V0h-.99Zm5.99.78a2.4,2.4,0,0,1,1.685.54,2.085,2.085,0,0,1,.585,1.61V0h-.91V-.7a1.517,1.517,0,0,1-.685.565,2.614,2.614,0,0,1-1.055.2A2.208,2.208,0,0,1-72.55-.37a1.379,1.379,0,0,1-.535-1.13,1.392,1.392,0,0,1,.51-1.125,2.513,2.513,0,0,1,1.62-.425h1.52v-.19a1.224,1.224,0,0,0-.36-.95,1.518,1.518,0,0,0-1.06-.33,2.806,2.806,0,0,0-.92.155,2.37,2.37,0,0,0-.76.415l-.4-.72a2.9,2.9,0,0,1,.98-.505A4.1,4.1,0,0,1-70.745-5.35Zm-.22,4.67a1.783,1.783,0,0,0,.95-.245,1.4,1.4,0,0,0,.58-.695v-.74h-1.48q-1.22,0-1.22.82a.742.742,0,0,0,.31.63A1.417,1.417,0,0,0-70.965-.68Zm4.27-4.62h.96V0h-.96Zm.48-1.02a.64.64,0,0,1-.465-.18.59.59,0,0,1-.185-.44.607.607,0,0,1,.185-.445.631.631,0,0,1,.465-.185.65.65,0,0,1,.465.175.574.574,0,0,1,.185.435.618.618,0,0,1-.185.455A.631.631,0,0,1-66.215-6.32Zm4.62,6.38A2.943,2.943,0,0,1-63.04-.29a2.564,2.564,0,0,1-1-.965,2.71,2.71,0,0,1-.36-1.395,2.71,2.71,0,0,1,.36-1.395,2.529,2.529,0,0,1,1-.96,2.978,2.978,0,0,1,1.445-.345,2.774,2.774,0,0,1,1.285.29,2.066,2.066,0,0,1,.875.84l-.73.47a1.631,1.631,0,0,0-.62-.57,1.768,1.768,0,0,0-.82-.19,1.9,1.9,0,0,0-.935.23,1.639,1.639,0,0,0-.65.655,1.981,1.981,0,0,0-.235.975,2,2,0,0,0,.235.985,1.639,1.639,0,0,0,.65.655,1.9,1.9,0,0,0,.935.23,1.768,1.768,0,0,0,.82-.19,1.631,1.631,0,0,0,.62-.57l.73.46a2.1,2.1,0,0,1-.875.845A2.735,2.735,0,0,1-61.595.06Zm6.16-5.41a2.19,2.19,0,0,1,1.6.585,2.3,2.3,0,0,1,.6,1.715V0h-.96V-2.94a1.627,1.627,0,0,0-.37-1.16,1.392,1.392,0,0,0-1.06-.39,1.652,1.652,0,0,0-1.23.455A1.778,1.778,0,0,0-57.3-2.73V0h-.96V-7.42h.96v2.87a1.982,1.982,0,0,1,.785-.59A2.7,2.7,0,0,1-55.435-5.35Zm8.92.05V0h-.91V-.8a1.929,1.929,0,0,1-.765.635A2.387,2.387,0,0,1-49.225.06a2.313,2.313,0,0,1-1.67-.585A2.282,2.282,0,0,1-51.5-2.25V-5.3h.96v2.94a1.646,1.646,0,0,0,.37,1.165,1.382,1.382,0,0,0,1.06.395,1.582,1.582,0,0,0,1.2-.46,1.806,1.806,0,0,0,.44-1.3V-5.3Zm4.66-.05a2.19,2.19,0,0,1,1.6.585,2.3,2.3,0,0,1,.595,1.715V0h-.96V-2.94a1.627,1.627,0,0,0-.37-1.16,1.392,1.392,0,0,0-1.06-.39,1.652,1.652,0,0,0-1.23.455,1.778,1.778,0,0,0-.45,1.305V0h-.96V-5.3h.92v.8a1.866,1.866,0,0,1,.785-.63A2.743,2.743,0,0,1-41.855-5.35Zm9.08.05V-.72a2.737,2.737,0,0,1-.69,2.055A2.862,2.862,0,0,1-35.525,2a4.928,4.928,0,0,1-1.43-.2,2.831,2.831,0,0,1-1.1-.585l.46-.74a2.714,2.714,0,0,0,.915.5,3.476,3.476,0,0,0,1.125.185A1.887,1.887,0,0,0-34.18.72a1.81,1.81,0,0,0,.445-1.34v-.42a2.125,2.125,0,0,1-.835.615,2.782,2.782,0,0,1-1.075.2A2.9,2.9,0,0,1-37.02-.545a2.418,2.418,0,0,1-.965-.91,2.55,2.55,0,0,1-.35-1.335,2.55,2.55,0,0,1,.35-1.335,2.383,2.383,0,0,1,.965-.905,2.934,2.934,0,0,1,1.375-.32,2.808,2.808,0,0,1,1.115.22,2.07,2.07,0,0,1,.845.65V-5.3Zm-2.76,4.24a1.965,1.965,0,0,0,.935-.22,1.627,1.627,0,0,0,.65-.615,1.717,1.717,0,0,0,.235-.9,1.622,1.622,0,0,0-.51-1.245,1.846,1.846,0,0,0-1.31-.475,1.859,1.859,0,0,0-1.32.475,1.622,1.622,0,0,0-.51,1.245,1.717,1.717,0,0,0,.235.9,1.627,1.627,0,0,0,.65.615A1.987,1.987,0,0,0-35.535-1.06ZM-21.625,0l-.01-5.1-2.53,4.25h-.46l-2.53-4.22V0h-.96V-7h.82l2.92,4.92L-21.495-7h.82l.01,7Zm5.19.06a2.874,2.874,0,0,1-1.42-.35,2.538,2.538,0,0,1-.985-.965,2.739,2.739,0,0,1-.355-1.395,2.739,2.739,0,0,1,.355-1.395,2.5,2.5,0,0,1,.985-.96,2.907,2.907,0,0,1,1.42-.345,2.879,2.879,0,0,1,1.415.345,2.512,2.512,0,0,1,.98.96,2.739,2.739,0,0,1,.355,1.395,2.739,2.739,0,0,1-.355,1.395,2.548,2.548,0,0,1-.98.965A2.846,2.846,0,0,1-16.435.06Zm0-.84a1.789,1.789,0,0,0,.915-.235,1.659,1.659,0,0,0,.635-.66,2.016,2.016,0,0,0,.23-.975,2.016,2.016,0,0,0-.23-.975,1.625,1.625,0,0,0-.635-.655,1.82,1.82,0,0,0-.915-.23,1.82,1.82,0,0,0-.915.23,1.658,1.658,0,0,0-.64.655,1.981,1.981,0,0,0-.235.975,1.981,1.981,0,0,0,.235.975,1.693,1.693,0,0,0,.64.66A1.789,1.789,0,0,0-16.435-.78Zm7.06.47a1.432,1.432,0,0,1-.52.275,2.172,2.172,0,0,1-.64.1,1.7,1.7,0,0,1-1.24-.43,1.642,1.642,0,0,1-.44-1.23V-4.51h-.9V-5.3h.9V-6.46h.96V-5.3h1.52v.79h-1.52v2.87a.931.931,0,0,0,.215.66.8.8,0,0,0,.615.23A1.157,1.157,0,0,0-9.675-1Zm3.25.37a2.874,2.874,0,0,1-1.42-.35,2.538,2.538,0,0,1-.985-.965A2.739,2.739,0,0,1-8.885-2.65,2.739,2.739,0,0,1-8.53-4.045a2.5,2.5,0,0,1,.985-.96,2.907,2.907,0,0,1,1.42-.345,2.879,2.879,0,0,1,1.415.345,2.512,2.512,0,0,1,.98.96A2.739,2.739,0,0,1-3.375-2.65,2.739,2.739,0,0,1-3.73-1.255a2.548,2.548,0,0,1-.98.965A2.846,2.846,0,0,1-6.125.06Zm0-.84a1.789,1.789,0,0,0,.915-.235,1.659,1.659,0,0,0,.635-.66,2.016,2.016,0,0,0,.23-.975,2.016,2.016,0,0,0-.23-.975A1.625,1.625,0,0,0-5.21-4.28a1.82,1.82,0,0,0-.915-.23,1.82,1.82,0,0,0-.915.23,1.658,1.658,0,0,0-.64.655,1.981,1.981,0,0,0-.235.975,1.981,1.981,0,0,0,.235.975,1.693,1.693,0,0,0,.64.66A1.789,1.789,0,0,0-6.125-.78Zm5-3.63a1.638,1.638,0,0,1,.74-.7A2.686,2.686,0,0,1,.8-5.35v.93a1.874,1.874,0,0,0-.22-.01A1.615,1.615,0,0,0-.64-3.965,1.841,1.841,0,0,0-1.085-2.64V0h-.96V-5.3h.92ZM10.965-7,7.895,0H6.9L3.825-7H4.9l2.52,5.75L9.965-7ZM16.1-2.62a2.751,2.751,0,0,1-.02.29h-4.3A1.664,1.664,0,0,0,12.4-1.205,2.007,2.007,0,0,0,13.7-.78a1.966,1.966,0,0,0,1.53-.64l.53.62a2.321,2.321,0,0,1-.9.64,3.115,3.115,0,0,1-1.195.22,3.13,3.13,0,0,1-1.49-.345A2.461,2.461,0,0,1,11.18-1.25a2.767,2.767,0,0,1-.355-1.4,2.81,2.81,0,0,1,.345-1.39,2.471,2.471,0,0,1,.95-.965,2.706,2.706,0,0,1,1.365-.345,2.652,2.652,0,0,1,1.355.345,2.423,2.423,0,0,1,.93.965A2.94,2.94,0,0,1,16.1-2.62Zm-2.62-1.92a1.659,1.659,0,0,0-1.155.42,1.693,1.693,0,0,0-.545,1.1h3.4a1.7,1.7,0,0,0-.545-1.1A1.648,1.648,0,0,0,13.485-4.54Zm6.78-.81a2.19,2.19,0,0,1,1.605.585,2.3,2.3,0,0,1,.595,1.715V0h-.96V-2.94a1.627,1.627,0,0,0-.37-1.16,1.392,1.392,0,0,0-1.06-.39,1.652,1.652,0,0,0-1.23.455A1.778,1.778,0,0,0,18.4-2.73V0h-.96V-7.42h.96v2.87a1.982,1.982,0,0,1,.785-.59A2.7,2.7,0,0,1,20.265-5.35Zm3.98.05h.96V0h-.96Zm.48-1.02a.64.64,0,0,1-.465-.18.59.59,0,0,1-.185-.44.607.607,0,0,1,.185-.445.631.631,0,0,1,.465-.185.65.65,0,0,1,.465.175.574.574,0,0,1,.185.435.618.618,0,0,1-.185.455A.631.631,0,0,1,24.725-6.32ZM29.345.06A2.943,2.943,0,0,1,27.9-.29a2.564,2.564,0,0,1-.995-.965,2.71,2.71,0,0,1-.36-1.395,2.71,2.71,0,0,1,.36-1.395,2.529,2.529,0,0,1,.995-.96,2.978,2.978,0,0,1,1.445-.345,2.774,2.774,0,0,1,1.285.29,2.066,2.066,0,0,1,.875.84l-.73.47a1.631,1.631,0,0,0-.62-.57,1.768,1.768,0,0,0-.82-.19,1.9,1.9,0,0,0-.935.23,1.639,1.639,0,0,0-.65.655,1.981,1.981,0,0,0-.235.975,2,2,0,0,0,.235.985,1.639,1.639,0,0,0,.65.655,1.9,1.9,0,0,0,.935.23,1.768,1.768,0,0,0,.82-.19,1.631,1.631,0,0,0,.62-.57l.73.46a2.1,2.1,0,0,1-.875.845A2.735,2.735,0,0,1,29.345.06Zm3.33-7.48h.96V0h-.96Zm7.58,4.8a2.752,2.752,0,0,1-.02.29h-4.3a1.664,1.664,0,0,0,.615,1.125,2.007,2.007,0,0,0,1.305.425,1.966,1.966,0,0,0,1.53-.64l.53.62a2.321,2.321,0,0,1-.9.64,3.115,3.115,0,0,1-1.195.22,3.13,3.13,0,0,1-1.49-.345,2.461,2.461,0,0,1-1-.965,2.767,2.767,0,0,1-.355-1.4,2.81,2.81,0,0,1,.345-1.39,2.471,2.471,0,0,1,.95-.965,2.706,2.706,0,0,1,1.365-.345,2.652,2.652,0,0,1,1.355.345,2.423,2.423,0,0,1,.93.965A2.94,2.94,0,0,1,40.255-2.62Zm-2.62-1.92a1.659,1.659,0,0,0-1.155.42,1.693,1.693,0,0,0-.545,1.1h3.4a1.7,1.7,0,0,0-.545-1.1A1.648,1.648,0,0,0,37.635-4.54Zm5.47,4.6a4.441,4.441,0,0,1-1.25-.175,2.745,2.745,0,0,1-.94-.445l.4-.76a2.871,2.871,0,0,0,.85.4,3.5,3.5,0,0,0,1.01.15q1.26,0,1.26-.72a.466.466,0,0,0-.17-.38,1.076,1.076,0,0,0-.425-.2q-.255-.065-.725-.145a7.1,7.1,0,0,1-1.045-.23,1.611,1.611,0,0,1-.695-.44,1.225,1.225,0,0,1-.29-.87,1.359,1.359,0,0,1,.6-1.155A2.687,2.687,0,0,1,43.3-5.35a4.435,4.435,0,0,1,1.06.13,2.851,2.851,0,0,1,.87.35l-.41.76a2.757,2.757,0,0,0-1.53-.42,1.769,1.769,0,0,0-.93.2.6.6,0,0,0-.32.53.505.505,0,0,0,.18.41,1.138,1.138,0,0,0,.445.22q.265.07.745.16a8.086,8.086,0,0,1,1.035.235,1.546,1.546,0,0,1,.675.425,1.184,1.184,0,0,1,.28.84A1.325,1.325,0,0,1,44.78-.365,2.9,2.9,0,0,1,43.105.06Zm9.48.02a3.913,3.913,0,0,1-1.91-.465A3.437,3.437,0,0,1,49.34-1.67a3.527,3.527,0,0,1-.485-1.83,3.527,3.527,0,0,1,.485-1.83,3.437,3.437,0,0,1,1.335-1.285,3.914,3.914,0,0,1,1.91-.465,3.893,3.893,0,0,1,1.9.465,3.412,3.412,0,0,1,1.33,1.28A3.547,3.547,0,0,1,56.3-3.5a3.547,3.547,0,0,1-.48,1.835,3.412,3.412,0,0,1-1.33,1.28A3.893,3.893,0,0,1,52.585.08Zm0-.89a2.75,2.75,0,0,0,1.385-.35,2.568,2.568,0,0,0,.97-.965A2.7,2.7,0,0,0,55.3-3.5a2.7,2.7,0,0,0-.355-1.375,2.568,2.568,0,0,0-.97-.965,2.75,2.75,0,0,0-1.385-.35,2.806,2.806,0,0,0-1.4.35,2.548,2.548,0,0,0-.98.965A2.7,2.7,0,0,0,49.855-3.5a2.7,2.7,0,0,0,.355,1.375,2.548,2.548,0,0,0,.98.965A2.806,2.806,0,0,0,52.585-.81Zm7.04-5.88q-.86,0-.86.93v.46h1.54v.79h-1.52V0h-.96V-4.51h-.9V-5.3h.9v-.47a1.689,1.689,0,0,1,.46-1.25,1.744,1.744,0,0,1,1.29-.46,2.175,2.175,0,0,1,.6.08,1.46,1.46,0,0,1,.48.23l-.29.73A1.2,1.2,0,0,0,59.625-6.69Zm3.53,0q-.86,0-.86.93v.46h1.54v.79h-1.52V0h-.96V-4.51h-.9V-5.3h.9v-.47a1.689,1.689,0,0,1,.46-1.25,1.744,1.744,0,0,1,1.29-.46,2.175,2.175,0,0,1,.6.08,1.46,1.46,0,0,1,.48.23l-.29.73A1.2,1.2,0,0,0,63.155-6.69Zm2.39,1.39h.96V0h-.96Zm.48-1.02a.64.64,0,0,1-.465-.18.59.59,0,0,1-.185-.44.607.607,0,0,1,.185-.445.631.631,0,0,1,.465-.185.65.65,0,0,1,.465.175.574.574,0,0,1,.185.435.618.618,0,0,1-.185.455A.631.631,0,0,1,66.025-6.32ZM70.645.06A2.943,2.943,0,0,1,69.2-.29a2.564,2.564,0,0,1-1-.965,2.71,2.71,0,0,1-.36-1.395,2.71,2.71,0,0,1,.36-1.395,2.529,2.529,0,0,1,1-.96,2.978,2.978,0,0,1,1.445-.345,2.774,2.774,0,0,1,1.285.29,2.066,2.066,0,0,1,.875.84l-.73.47a1.631,1.631,0,0,0-.62-.57,1.768,1.768,0,0,0-.82-.19,1.9,1.9,0,0,0-.935.23,1.639,1.639,0,0,0-.65.655,1.981,1.981,0,0,0-.235.975,2,2,0,0,0,.235.985,1.639,1.639,0,0,0,.65.655,1.9,1.9,0,0,0,.935.23,1.768,1.768,0,0,0,.82-.19,1.631,1.631,0,0,0,.62-.57l.73.46a2.1,2.1,0,0,1-.875.845A2.735,2.735,0,0,1,70.645.06Zm8.11-2.68a2.751,2.751,0,0,1-.02.29h-4.3a1.664,1.664,0,0,0,.615,1.125,2.007,2.007,0,0,0,1.305.425,1.966,1.966,0,0,0,1.53-.64l.53.62a2.321,2.321,0,0,1-.895.64,3.115,3.115,0,0,1-1.2.22,3.13,3.13,0,0,1-1.49-.345,2.461,2.461,0,0,1-1-.965,2.767,2.767,0,0,1-.355-1.4,2.81,2.81,0,0,1,.345-1.39,2.471,2.471,0,0,1,.95-.965,2.706,2.706,0,0,1,1.365-.345,2.652,2.652,0,0,1,1.355.345,2.423,2.423,0,0,1,.93.965A2.94,2.94,0,0,1,78.755-2.62Zm-2.62-1.92a1.659,1.659,0,0,0-1.155.42,1.693,1.693,0,0,0-.545,1.1h3.4a1.7,1.7,0,0,0-.545-1.1A1.648,1.648,0,0,0,76.135-4.54ZM-54.45,6v7h-1V9.88h-4.02V13h-1V6h1V9.01h4.02V6Zm1.96,1.7h.96V13h-.96Zm.48-1.02a.64.64,0,0,1-.465-.18.59.59,0,0,1-.185-.44.607.607,0,0,1,.185-.445.631.631,0,0,1,.465-.185.65.65,0,0,1,.465.175.574.574,0,0,1,.185.435.618.618,0,0,1-.185.455A.631.631,0,0,1-52.01,6.68Zm7.38,1.02v4.58a2.737,2.737,0,0,1-.69,2.055A2.862,2.862,0,0,1-47.38,15a4.928,4.928,0,0,1-1.43-.2,2.831,2.831,0,0,1-1.1-.585l.46-.74a2.714,2.714,0,0,0,.915.505,3.476,3.476,0,0,0,1.125.185,1.887,1.887,0,0,0,1.375-.44,1.81,1.81,0,0,0,.445-1.34v-.42a2.125,2.125,0,0,1-.835.615,2.782,2.782,0,0,1-1.075.2,2.9,2.9,0,0,1-1.375-.325,2.418,2.418,0,0,1-.965-.91,2.55,2.55,0,0,1-.35-1.335,2.55,2.55,0,0,1,.35-1.335,2.383,2.383,0,0,1,.965-.905A2.934,2.934,0,0,1-47.5,7.65a2.808,2.808,0,0,1,1.115.22,2.07,2.07,0,0,1,.845.65V7.7Zm-2.76,4.24a1.965,1.965,0,0,0,.935-.22,1.627,1.627,0,0,0,.65-.615,1.717,1.717,0,0,0,.235-.895,1.622,1.622,0,0,0-.51-1.245,1.846,1.846,0,0,0-1.31-.475,1.859,1.859,0,0,0-1.32.475,1.622,1.622,0,0,0-.51,1.245,1.717,1.717,0,0,0,.235.895,1.627,1.627,0,0,0,.65.615A1.987,1.987,0,0,0-47.39,11.94Zm7.42-4.29a2.19,2.19,0,0,1,1.6.585,2.3,2.3,0,0,1,.6,1.715V13h-.96V10.06A1.627,1.627,0,0,0-39.1,8.9a1.392,1.392,0,0,0-1.06-.39,1.652,1.652,0,0,0-1.23.455,1.778,1.778,0,0,0-.45,1.305V13h-.96V5.58h.96V8.45a1.982,1.982,0,0,1,.785-.59A2.7,2.7,0,0,1-39.97,7.65Zm11.9.05L-30.05,13h-.92L-32.5,8.98-34.05,13h-.92l-1.97-5.3h.91l1.54,4.22,1.6-4.22h.81l1.57,4.24,1.58-4.24Zm2.73-.05a2.4,2.4,0,0,1,1.685.54A2.085,2.085,0,0,1-23.07,9.8V13h-.91v-.7a1.517,1.517,0,0,1-.685.565,2.614,2.614,0,0,1-1.055.2,2.208,2.208,0,0,1-1.425-.43,1.379,1.379,0,0,1-.535-1.13,1.392,1.392,0,0,1,.51-1.125,2.513,2.513,0,0,1,1.62-.425h1.52V9.76a1.224,1.224,0,0,0-.36-.95,1.519,1.519,0,0,0-1.06-.33,2.806,2.806,0,0,0-.92.155,2.37,2.37,0,0,0-.76.415l-.4-.72a2.9,2.9,0,0,1,.98-.505A4.1,4.1,0,0,1-25.34,7.65Zm-.22,4.67a1.783,1.783,0,0,0,.95-.245,1.4,1.4,0,0,0,.58-.695v-.74h-1.48q-1.22,0-1.22.82a.742.742,0,0,0,.31.63A1.417,1.417,0,0,0-25.56,12.32ZM-16.7,7.7l-2.57,5.83a2.629,2.629,0,0,1-.8,1.14,1.815,1.815,0,0,1-1.1.33,2.314,2.314,0,0,1-.755-.125,1.55,1.55,0,0,1-.6-.365l.41-.72a1.337,1.337,0,0,0,.95.39.917.917,0,0,0,.585-.185,1.578,1.578,0,0,0,.425-.635l.17-.37L-22.32,7.7h1l1.85,4.24,1.83-4.24Zm8.44,1.67a1.793,1.793,0,0,1,.96.615,1.764,1.764,0,0,1,.35,1.125,1.618,1.618,0,0,1-.685,1.4A3.409,3.409,0,0,1-9.63,13h-3.34V6h3.14a3.1,3.1,0,0,1,1.855.48A1.557,1.557,0,0,1-7.32,7.81a1.729,1.729,0,0,1-.255.95A1.661,1.661,0,0,1-8.26,9.37Zm-3.71-2.56V9.05h2.05a2.082,2.082,0,0,0,1.185-.285A.949.949,0,0,0-8.32,7.93a.949.949,0,0,0-.415-.835A2.082,2.082,0,0,0-9.92,6.81Zm2.3,5.38a2.368,2.368,0,0,0,1.28-.28.974.974,0,0,0,.43-.88q0-1.17-1.71-1.17h-2.3v2.33ZM-.6,7.7V13h-.91v-.8a1.929,1.929,0,0,1-.765.635,2.387,2.387,0,0,1-1.035.225,2.313,2.313,0,0,1-1.67-.585,2.282,2.282,0,0,1-.61-1.725V7.7h.96v2.94a1.646,1.646,0,0,0,.37,1.165A1.382,1.382,0,0,0-3.2,12.2,1.582,1.582,0,0,0-2,11.74a1.806,1.806,0,0,0,.44-1.3V7.7Zm2.75.89a1.638,1.638,0,0,1,.74-.7,2.686,2.686,0,0,1,1.19-.24v.93a1.874,1.874,0,0,0-.22-.01,1.615,1.615,0,0,0-1.225.465A1.841,1.841,0,0,0,2.19,10.36V13H1.23V7.7h.92ZM10,10.38a2.751,2.751,0,0,1-.02.29H5.68A1.664,1.664,0,0,0,6.295,11.8,2.007,2.007,0,0,0,7.6,12.22a1.966,1.966,0,0,0,1.53-.64l.53.62a2.321,2.321,0,0,1-.9.64,3.115,3.115,0,0,1-1.195.22,3.13,3.13,0,0,1-1.49-.345,2.461,2.461,0,0,1-1-.965,2.767,2.767,0,0,1-.355-1.4,2.81,2.81,0,0,1,.345-1.39,2.471,2.471,0,0,1,.95-.965A2.706,2.706,0,0,1,7.38,7.65a2.652,2.652,0,0,1,1.355.345,2.423,2.423,0,0,1,.93.965A2.94,2.94,0,0,1,10,10.38ZM7.38,8.46a1.659,1.659,0,0,0-1.155.42,1.693,1.693,0,0,0-.545,1.1h3.4a1.7,1.7,0,0,0-.545-1.095A1.648,1.648,0,0,0,7.38,8.46Zm5.73-.81a2.4,2.4,0,0,1,1.685.54A2.085,2.085,0,0,1,15.38,9.8V13h-.91v-.7a1.517,1.517,0,0,1-.685.565,2.614,2.614,0,0,1-1.055.2,2.208,2.208,0,0,1-1.425-.43,1.478,1.478,0,0,1-.025-2.255A2.513,2.513,0,0,1,12.9,9.95h1.52V9.76a1.224,1.224,0,0,0-.36-.95A1.518,1.518,0,0,0,13,8.48a2.806,2.806,0,0,0-.92.155,2.37,2.37,0,0,0-.76.415l-.4-.72a2.9,2.9,0,0,1,.98-.505A4.1,4.1,0,0,1,13.11,7.65Zm-.22,4.67a1.783,1.783,0,0,0,.95-.245,1.4,1.4,0,0,0,.58-.695v-.74H12.94q-1.22,0-1.22.82a.742.742,0,0,0,.31.63A1.417,1.417,0,0,0,12.89,12.32ZM22.1,7.7V13h-.91v-.8a1.929,1.929,0,0,1-.765.635,2.387,2.387,0,0,1-1.035.225,2.313,2.313,0,0,1-1.67-.585,2.282,2.282,0,0,1-.61-1.725V7.7h.96v2.94a1.646,1.646,0,0,0,.37,1.165,1.382,1.382,0,0,0,1.06.395,1.582,1.582,0,0,0,1.2-.46,1.806,1.806,0,0,0,.44-1.3V7.7Zm2.07,3.99a.614.614,0,0,1,.465.2.677.677,0,0,1,.185.485,1.191,1.191,0,0,1-.035.29q-.035.14-.135.43l-.47,1.39h-.63l.37-1.49a.628.628,0,0,1-.305-.235.656.656,0,0,1-.115-.385.663.663,0,0,1,.19-.49A.651.651,0,0,1,24.17,11.69ZM35.52,13l-.01-5.1-2.53,4.25h-.46L29.99,7.93V13h-.96V6h.82l2.92,4.92L35.65,6h.82l.01,7Zm6.22.08a3.913,3.913,0,0,1-1.91-.465,3.437,3.437,0,0,1-1.335-1.285,3.695,3.695,0,0,1,0-3.66A3.437,3.437,0,0,1,39.83,6.385a4.135,4.135,0,0,1,3.81,0,3.412,3.412,0,0,1,1.33,1.28A3.547,3.547,0,0,1,45.45,9.5a3.547,3.547,0,0,1-.48,1.835,3.412,3.412,0,0,1-1.33,1.28A3.893,3.893,0,0,1,41.74,13.08Zm0-.89a2.75,2.75,0,0,0,1.385-.35,2.568,2.568,0,0,0,.97-.965,2.84,2.84,0,0,0,0-2.75,2.568,2.568,0,0,0-.97-.965,2.75,2.75,0,0,0-1.385-.35,2.806,2.806,0,0,0-1.4.35,2.548,2.548,0,0,0-.98.965,2.84,2.84,0,0,0,0,2.75,2.548,2.548,0,0,0,.98.965A2.806,2.806,0,0,0,41.74,12.19Zm6.53-5.32h-2.4V6h5.79v.87h-2.4V13h-.99Zm7.51,6.21a3.864,3.864,0,0,1-1.9-.465,3.421,3.421,0,0,1-1.325-1.28A3.548,3.548,0,0,1,52.08,9.5a3.548,3.548,0,0,1,.48-1.835,3.412,3.412,0,0,1,1.33-1.28,3.893,3.893,0,0,1,1.9-.465,3.966,3.966,0,0,1,1.5.275,3.07,3.07,0,0,1,1.16.815l-.65.63a2.608,2.608,0,0,0-1.97-.83,2.854,2.854,0,0,0-1.41.35,2.538,2.538,0,0,0-.985.965,2.84,2.84,0,0,0,0,2.75,2.538,2.538,0,0,0,.985.965,2.854,2.854,0,0,0,1.41.35,2.613,2.613,0,0,0,1.97-.84l.65.63a3.111,3.111,0,0,1-1.165.82A3.941,3.941,0,0,1,55.78,13.08Z" transform="translate(209.632 990.261)" fill="#fff"/>
    <g id="Group_609" data-name="Group 609" transform="translate(120.909 925.75)">
      <path id="Path_144" data-name="Path 144" d="M-28.98-9.884h-5.4l.406-.154A12.514,12.514,0,0,0-35-11.886l-1.232.42a15.623,15.623,0,0,1,.826,1.582h-5.642v1.26H-28.98ZM-33.5-7.616A19.733,19.733,0,0,1-29.988-4.55L-28.9-5.4A20.9,20.9,0,0,0-32.48-8.358Zm-4.144-.7a11.844,11.844,0,0,1-3.416,2.758,8.3,8.3,0,0,1,1.022.952,16.566,16.566,0,0,0,3.668-3.22Zm4.62,2.366a7.97,7.97,0,0,1-1.932,2.982,8.167,8.167,0,0,1-1.96-2.912l-1.176.364a11.262,11.262,0,0,0,2.156,3.36,13.719,13.719,0,0,1-5.348,2.1A6.61,6.61,0,0,1-40.5,1.12,15.127,15.127,0,0,0-34.972-1.3a12.342,12.342,0,0,0,5.516,2.324,4.509,4.509,0,0,1,.8-1.162,12.694,12.694,0,0,1-5.32-2A9.857,9.857,0,0,0-31.71-5.558ZM-19.67-7.294v1.008h-2.016V-7.294Zm3.262,1.008h-2.086V-7.294h2.086Zm-2.086,2v-1.05h2.086v1.05Zm-3.192,0v-1.05h2.016v1.05Zm0,.98h2.016v2.156h1.176V-3.3h2.086v.994c0,.168-.056.224-.224.224s-.7.014-1.274-.014a3.569,3.569,0,0,1,.35,1.05,5.024,5.024,0,0,0,1.876-.2c.392-.168.5-.462.5-1.05V-8.274H-16.9a10.2,10.2,0,0,0-.966-.49,12.519,12.519,0,0,0,2.674-1.9l-.784-.63-.252.07h-6.622v1.022h5.4a11.738,11.738,0,0,1-1.526.952,19.2,19.2,0,0,0-1.806-.714l-.84.7c.714.266,1.568.644,2.3.994H-22.9v7.182h1.218Zm-3-6.132c-.182-.6-.518-1.54-.77-2.268l-1.148.336c.224.742.574,1.736.728,2.352Zm.308,4.06-.2.056h-.77c.336-.98.728-2.114,1.036-3.108h-3.024v1.176h1.414c-.35,1.092-.756,2.226-1.106,3.052h1.792a13.153,13.153,0,0,1-.91,2.716A6.118,6.118,0,0,0-27.552-.028l.882,1.2c.378-.854.854-1.764,1.176-1.764.294,0,.812.49,1.372.812a7.792,7.792,0,0,0,4.06.742c1.624,0,4.2-.084,5.278-.154a6.045,6.045,0,0,1,.378-1.344,51.3,51.3,0,0,1-5.6.322,7.6,7.6,0,0,1-3.906-.672c-.448-.28-.742-.518-1.008-.658a16.762,16.762,0,0,0,1.134-3.612ZM-7.868-2.912v2.17h-3.444v-2.17Zm-4.676,3.948h1.232V.392h3.444V.938H-6.58V-4.088h-5.964ZM-6.286-10.15H-8.764a12.66,12.66,0,0,0-.7-1.68l-1.176.336a14.048,14.048,0,0,1,.518,1.344h-2.772v1.162h6.608ZM-8.134-8.988a16.2,16.2,0,0,1-.924,2.576H-11.13l1.022-.294a10.687,10.687,0,0,0-.854-2.24l-1.134.294a11.118,11.118,0,0,1,.8,2.24h-1.974v1.176h7.308V-6.412H-7.812c.308-.672.658-1.512.966-2.282ZM-1.582-11.1l-.2.056H-5.334V1.05h1.148V-9.87h1.932C-2.59-8.792-3.108-7.336-3.57-6.216a4.315,4.315,0,0,1,1.5,3.01c0,.476-.084.868-.35,1.036a1.254,1.254,0,0,1-.546.14,8.013,8.013,0,0,1-.938-.042A3.161,3.161,0,0,1-3.584-.84,7.8,7.8,0,0,0-2.422-.868a1.952,1.952,0,0,0,.868-.308,2.222,2.222,0,0,0,.672-1.9A4.618,4.618,0,0,0-2.338-6.37c.56-1.26,1.176-2.856,1.666-4.158Zm5.908-.266A14.511,14.511,0,0,1,.49-6.006,10.781,10.781,0,0,1,1.638-4.928,18.854,18.854,0,0,0,5.754-10.92Zm4.1,7.546c.49.7,1.036,1.512,1.554,2.324l-5.866.35A35.188,35.188,0,0,0,8.064-6.832L6.552-7.448A27.831,27.831,0,0,1,3.08-2.058c-.546.644-.924,1.064-1.344,1.176a7.261,7.261,0,0,1,.518,1.4C2.87.28,3.71.224,10.724-.294c.308.5.546.952.742,1.358L12.782.35A42.715,42.715,0,0,0,9.688-4.382ZM6.524-11.4v1.33H8.96A11.965,11.965,0,0,0,12.6-4.928a7.2,7.2,0,0,1,1.008-1.288A9.51,9.51,0,0,1,9.954-11.4Zm15.3,7.42A10.29,10.29,0,0,0,23.758-5.46,9.816,9.816,0,0,0,25.69-3.976Zm.35,3.43V-2.87H25.3V-.546Zm-2.17-4.4H18.368V-6.79H19.88v-.63a8.722,8.722,0,0,1,.9.77,10.421,10.421,0,0,0,1.078-1.316,11.032,11.032,0,0,0,1.106,1.61,9.635,9.635,0,0,1-2.954,1.988Zm-3.612-5.124h2.282V-7.91H16.394Zm8.568.812A8.685,8.685,0,0,1,23.716-7.21,9.9,9.9,0,0,1,22.5-9l.126-.252Zm.784-1.162-.224.056h-2.38c.154-.35.294-.714.42-1.078l-1.26-.308A9.978,9.978,0,0,1,19.88-7.6v-3.584H15.26v4.4h1.946v5.46l-.924.21V-5.614H15.218V-.9q-.357.063-.672.126L14.77.49c1.512-.35,3.542-.84,5.46-1.33L20.1-1.988l-1.736.406V-3.794h1.638v-.014a4.758,4.758,0,0,1,.364.574c.21-.084.406-.182.616-.28V1.064h1.19V.574H25.3v.448h1.246v-4.55l.28.112a5.125,5.125,0,0,1,.8-1.078A9.018,9.018,0,0,1,24.57-6.328a10.418,10.418,0,0,0,2-3.738ZM36.47-3.094v1.61H33.516v-1.61Zm1.218,2.66v-3.7H32.312V.378h1.2V-.434Zm.826-9.52v1.526H31.4V-9.954Zm-7.14,3.7c.014-.364.028-.714.028-1.05h8.414V-11.06h-9.7v3.346c0,2.24-.14,5.4-1.694,7.63a5.349,5.349,0,0,1,1.05.826A12.558,12.558,0,0,0,31.29-5.11h8.176c-.126,3.276-.294,4.522-.56,4.816a.506.506,0,0,1-.49.2,11.364,11.364,0,0,1-1.526-.07,2.9,2.9,0,0,1,.364,1.232,11.974,11.974,0,0,0,1.806-.028,1.316,1.316,0,0,0,1.008-.5c.406-.5.56-2.072.728-6.216.014-.182.014-.574.014-.574Z" transform="translate(88.723 15.51)" fill="#fff"/>
      <path id="Path_145" data-name="Path 145" d="M-56.232-17.712l-1.344,1.56h-2.088v-1.56Zm-8.616,6.072v-1.728h6.768v1.728Zm-6.432-6.072h7.824v1.56h-6.408l.192.672h12.7l-1.344,1.44h-6.36l-3.84-1.416v5.712h.48c1.488,0,3.192-.768,3.192-1.056v-.168h6.768v.984h.7a7.546,7.546,0,0,0,3.12-.744V-12.84a1.354,1.354,0,0,0,.84-.48l-2.952-2.16h2.784c.36,0,.624-.12.7-.384-.792-.624-1.92-1.416-2.568-1.848h3.48c.36,0,.624-.12.7-.384-1.248-.96-3.24-2.28-3.24-2.28l-1.752,1.992h-3.384v-1.152c.672-.1.816-.336.864-.672l-4.656-.336v2.16h-8.016ZM-54.528-8.9c-.048.48-.144,1.032-.216,1.536-.744-.576-1.7-1.224-2.16-1.536ZM-55.872-3.1-57.024-1.7h-2.64V-2.832c.672-.1.816-.336.864-.672l-3.1-.216c1.776-.288,3.384-.552,4.752-.792a9.813,9.813,0,0,1,1.176,1.368Zm1.128-3.216a32.991,32.991,0,0,0,3.672-1.9c.5-.024.72-.1.912-.312l-2.856-2.712L-54.7-9.576H-68.9a6.715,6.715,0,0,0-.408-1.368h-.312A2.63,2.63,0,0,1-71.3-8.808a1.708,1.708,0,0,0-1.224,2.016,1.657,1.657,0,0,0,2.328.984,2.955,2.955,0,0,0,1.392-3.1h11.5l-1.272,1.368H-68.4l.192.672h1.944a7.867,7.867,0,0,1-2.808,1.536,3.639,3.639,0,0,1-.648.144l.912,2.928a1.514,1.514,0,0,0,.768-.576c1.608-.216,3.144-.432,4.584-.648V-1.7h-6.528l.192.672h6.336V1.032h-8.616l.192.672h20.52c.336,0,.624-.12.672-.384-1.2-.96-3.12-2.28-3.12-2.28l-1.7,1.992h-4.152V-1.032h6.5c.336,0,.6-.12.672-.384-.672-.552-1.56-1.224-2.184-1.7,1.512-.648,1.416-3.888-4.536-3.384l-.12.288A14.366,14.366,0,0,1-57.864-5.16c-3.5.1-6.768.144-9.072.144a28.325,28.325,0,0,0,5.112-1.848h6.6a1.034,1.034,0,0,0,.408-.072l-.1.5Zm19.728-1.656v-6.456h4.56v6.456Zm-8.232,0v-6.456h4.512v6.456Zm14.16-8.88L-30.672-15.1h-4.344v-4.272c.672-.1.84-.36.888-.7l-4.608-.432v5.4h-4.248l-3.936-1.488V-4.872h.528c1.512,0,3.144-.816,3.144-1.176V-7.3h4.512V2.28h.7c1.416,0,3.024-.912,3.024-1.272V-7.3h4.56V-5.28h.648A6.558,6.558,0,0,0-26.736-6.1v-7.728a1.479,1.479,0,0,0,.936-.528ZM-3.432-1.56h-.24A8.444,8.444,0,0,1-5.3-1.152c-.432.048-1.128.144-1.608.168-.744.048-2.376.1-4.032.1h-5.592c-1.92,0-2.64-.288-2.64-1.368V-18.048H-2.76c.336,0,.6-.12.672-.384-1.08-.984-2.88-2.448-2.88-2.448l-1.608,2.16H-23.352l.192.672h.792V-1.8c0,3.024,1.992,3.408,6.192,3.408h4.992C-2.976,1.608-1.3,1.32-1.3-.216c0-.528-.384-1.032-1.992-1.3ZM-7.416-3.816V-7.848H-6.1v4.032ZM-5.592-2.04a4.764,4.764,0,0,0,2.376-.7V-7.512A1.341,1.341,0,0,0-2.448-7.9L-5.04-9.84-6.312-8.52H-7.32l-2.9-1.128V-1.7h.408c1.152,0,2.4-.6,2.4-.864v-.576H-6.1v1.1Zm-9.744-1.776V-7.848h1.224v4.032Zm1.7,1.872A4.588,4.588,0,0,0-11.3-2.616v-4.9a1.342,1.342,0,0,0,.768-.408l-2.544-1.9-1.248,1.3h-.936L-18.1-9.648V-1.32h.384c1.152,0,2.376-.6,2.376-.84v-.984h1.224v1.2ZM-12.816-12v-3.48h3.984V-12Zm3.984,1.824h.576a5.937,5.937,0,0,0,2.712-.72v-4.128a1.509,1.509,0,0,0,.864-.456l-2.952-2.208-1.44,1.536H-12.7l-3.36-1.272v7.7h.456c1.32,0,2.784-.7,2.784-.984v-.624h3.984Zm22.152-.84a13.531,13.531,0,0,0,3.6-4.488h6.072c.36,0,.624-.12.7-.384-1.1-1.008-2.976-2.472-2.976-2.472l-1.656,2.184H17.28a24.946,24.946,0,0,0,1.032-2.568c.552,0,.816-.24.888-.552l-4.32-1.032a30.308,30.308,0,0,1-1.848,9.144Zm5.5,1.08H13.608l.192.672h8.736c.336,0,.6-.12.648-.384-1.032-.984-2.808-2.424-2.808-2.424ZM7.368-5.352h1.2V.792h-1.2ZM5.376-17.976H6.744v2.616H5.376Zm4.68,3.288v2.808H5.376v-2.808ZM6.744-8.208H5.376v-3H6.744Zm6.144,2.856V.792h-1.2V-5.352Zm4.32,0V.792h-1.2V-5.352Zm3.384,5.9V-5.04c.648-.12.912-.264,1.08-.5L18.36-7.776,16.992-6.024H7.584l-2.5-.936L5.5-7.536h8.136c.336,0,.6-.12.672-.384-.984-.912-2.664-2.28-2.664-2.28L10.176-8.208H9.6v-3h.456v.5h.5a4.25,4.25,0,0,0,2.3-.672v-3.048a1.173,1.173,0,0,0,.7-.336l-2.5-1.848-1.2,1.248H9.6v-2.616h3.528c.336,0,.6-.12.672-.384-1.008-.912-2.688-2.232-2.688-2.232L9.624-18.648H5.712L2.3-20.208V-8.424a5.91,5.91,0,0,0-.528.6L4.152-6.792V.792H.96l.192.672H23.016c.336,0,.552-.12.624-.384-.7-.864-2.04-2.208-2.04-2.208Zm16.8-9.288V-12.96H38.9v4.224Zm-6.24-2.928v-5.664h2.9v5.88c-.768-.912-1.848-1.992-1.848-1.992ZM38.9-17.856v4.224H37.392v-4.224Zm4.968,0v4.224H42.288v-4.224Zm-1.584,9.12V-12.96h1.584v4.224ZM44.016.744H42.288v-4.32h4.824c.36,0,.624-.12.672-.384-1.008-1.032-2.808-2.568-2.808-2.568l-1.584,2.28h-1.1V-8.064h1.584v1.056h.576a4.7,4.7,0,0,0,2.832-.984V-17.3a1.681,1.681,0,0,0,.936-.528l-3.048-2.376-1.536,1.68H37.56l-3.5-1.368v1.368c-.96-.864-1.992-1.728-1.992-1.728L30.456-18H25.344l.192.672h2.256V-11.3h-2.4l.192.672h2.208v6.624c-1.152.264-2.112.48-2.688.6L26.616.384a1.1,1.1,0,0,0,.648-.7,66.509,66.509,0,0,0,7.1-5.184L34.3-5.712c-1.056.288-2.112.576-3.144.84v-5.76h2.64a.9.9,0,0,0,.264-.024v4.2h.5c1.416,0,2.832-.768,2.832-1.1v-.5H38.9v3.816H33.912l.192.672h4.8V.744H31.848l.192.672H48.072c.336,0,.624-.12.672-.384-1.08-1.1-3.024-2.784-3.024-2.784ZM54.7-7.872c.072-1.032.072-2.016.072-2.952v-2.64H57.24v5.592Zm3.1,2.232a5.68,5.68,0,0,0,2.664-.72v-6.576a1.552,1.552,0,0,0,.96-.528L58.44-15.72,57-14.136H54.768V-16.9a46.3,46.3,0,0,0,5.112-.84c.792.264,1.344.24,1.656-.024L58.2-20.64a31.093,31.093,0,0,1-4.008,2.832l-2.664-.84v7.7c0,4.272-.024,9.192-1.656,13.032l.24.24C53.376-.264,54.36-3.84,54.648-7.2H57.24v1.56Zm10.872-6.624H65.04v-4.512c2.256-.216,4.536-.528,6.072-.84.816.288,1.416.264,1.728,0l-3.456-3.12A37.125,37.125,0,0,1,64.9-17.88L61.68-18.888v7.128c0,4.656-.408,9.72-3.912,13.752l.216.264c6.5-3.432,7.056-9.288,7.056-13.848h1.968V1.992h.648c1.8,0,2.832-.72,2.832-.912V-11.592H72.36c.336,0,.6-.12.672-.384-1.032-.984-2.808-2.448-2.808-2.448Z" transform="translate(88.723 46.51)" fill="#fff"/>
    </g>
    <g id="Group_2" data-name="Group 2" transform="translate(153.632 881.635)">
      <path id="Path_1" data-name="Path 1" d="M428.32,172.488h18.6a8.284,8.284,0,0,1-7.578,4.941H428.32Z" transform="translate(-360.566 -145.203)" fill="#0092e5"/>
      <path id="Path_2" data-name="Path 2" d="M446.643,172.488h.28a8.284,8.284,0,0,1-7.578,4.941H428.32v-.191h10.836a8.275,8.275,0,0,0,7.487-4.75" transform="translate(-360.566 -145.203)" fill="#00176f"/>
      <path id="Path_3" data-name="Path 3" d="M428.32,172.488h18.6a3.118,3.118,0,0,0-.357.158H428.32Z" transform="translate(-360.566 -145.203)" fill="#79c3ee"/>
      <path id="Path_4" data-name="Path 4" d="M471.616,40.311a8.28,8.28,0,0,1-7.577,4.939H428.321V40.311Z" transform="translate(-360.566 -33.934)" fill="#0054a4"/>
      <path id="Path_5" data-name="Path 5" d="M471.616,40.311a8.28,8.28,0,0,1-7.577,4.939H428.321v-.191h35.527a8.276,8.276,0,0,0,7.486-4.748Z" transform="translate(-360.566 -33.934)" fill="#00176f"/>
      <path id="Path_6" data-name="Path 6" d="M471.616,40.311a3.146,3.146,0,0,1-.356.157H428.321v-.157Z" transform="translate(-360.566 -33.934)" fill="#53b7eb"/>
      <path id="Path_7" data-name="Path 7" d="M463.826,84.364a8.271,8.271,0,0,1-7.574,4.94H428.32v-4.94Z" transform="translate(-360.566 -71.019)" fill="#0054a4"/>
      <path id="Path_8" data-name="Path 8" d="M463.826,84.364a8.271,8.271,0,0,1-7.574,4.94H428.32v-.19h27.741a8.278,8.278,0,0,0,7.489-4.75Z" transform="translate(-360.566 -71.019)" fill="#00176f"/>
      <path id="Path_9" data-name="Path 9" d="M463.826,84.364a2.792,2.792,0,0,1-.355.159H428.32v-.159Z" transform="translate(-360.566 -71.019)" fill="#53b7eb"/>
      <path id="Path_10" data-name="Path 10" d="M455.385,128.421a8.28,8.28,0,0,1-7.577,4.941H428.32v-4.941Z" transform="translate(-360.566 -108.107)" fill="#0092e5"/>
      <path id="Path_11" data-name="Path 11" d="M455.385,128.421a8.28,8.28,0,0,1-7.577,4.941H428.32v-.19h19.3a8.277,8.277,0,0,0,7.489-4.751Z" transform="translate(-360.566 -108.107)" fill="#00176f"/>
      <path id="Path_12" data-name="Path 12" d="M455.385,128.421a2.727,2.727,0,0,1-.358.16H428.32v-.16Z" transform="translate(-360.566 -108.107)" fill="#79c3ee"/>
      <path id="Path_13" data-name="Path 13" d="M174.7,172.488H156.1a8.283,8.283,0,0,0,7.577,4.941H174.7Z" transform="translate(-131.406 -145.203)" fill="#0092e5"/>
      <path id="Path_14" data-name="Path 14" d="M156.38,172.488h-.28a8.283,8.283,0,0,0,7.577,4.941H174.7v-.191H163.866a8.273,8.273,0,0,1-7.486-4.75" transform="translate(-131.407 -145.203)" fill="#00176f"/>
      <path id="Path_15" data-name="Path 15" d="M174.7,172.488H156.1a3.341,3.341,0,0,1,.356.158H174.7Z" transform="translate(-131.406 -145.203)" fill="#79c3ee"/>
      <path id="Path_16" data-name="Path 16" d="M0,40.311A8.281,8.281,0,0,0,7.578,45.25H43.3V40.311Z" transform="translate(0 -33.934)" fill="#0054a4"/>
      <path id="Path_17" data-name="Path 17" d="M0,40.311A8.281,8.281,0,0,0,7.578,45.25H43.3v-.191H7.769A8.277,8.277,0,0,1,.281,40.311Z" transform="translate(0 -33.934)" fill="#00176f"/>
      <path id="Path_18" data-name="Path 18" d="M0,40.311a3.392,3.392,0,0,0,.357.157H43.3v-.157Z" transform="translate(0 -33.934)" fill="#53b7eb"/>
      <path id="Path_19" data-name="Path 19" d="M49.232,84.364a8.275,8.275,0,0,0,7.575,4.94H84.74v-4.94Z" transform="translate(-41.444 -71.019)" fill="#0054a4"/>
      <path id="Path_20" data-name="Path 20" d="M49.232,84.364a8.275,8.275,0,0,0,7.575,4.94H84.74v-.19H57a8.277,8.277,0,0,1-7.487-4.75Z" transform="translate(-41.444 -71.019)" fill="#00176f"/>
      <path id="Path_21" data-name="Path 21" d="M49.232,84.364a3.024,3.024,0,0,0,.356.159H84.74v-.159Z" transform="translate(-41.444 -71.019)" fill="#53b7eb"/>
      <path id="Path_22" data-name="Path 22" d="M102.6,128.421a8.283,8.283,0,0,0,7.577,4.941h19.489v-4.941Z" transform="translate(-86.369 -108.107)" fill="#0092e5"/>
      <path id="Path_23" data-name="Path 23" d="M102.6,128.421a8.283,8.283,0,0,0,7.577,4.941h19.489v-.19h-19.3a8.278,8.278,0,0,1-7.489-4.751Z" transform="translate(-86.369 -108.107)" fill="#00176f"/>
      <path id="Path_24" data-name="Path 24" d="M102.6,128.421a2.7,2.7,0,0,0,.357.16h26.709v-.16Z" transform="translate(-86.369 -108.107)" fill="#79c3ee"/>
      <path id="Path_25" data-name="Path 25" d="M267.552,19.313A19.312,19.312,0,1,1,248.24,0a19.311,19.311,0,0,1,19.311,19.313" transform="translate(-192.714)" fill="#fff"/>
      <path id="Path_26" data-name="Path 26" d="M272.554,28.766h2.809a17.56,17.56,0,0,0-16.115-16.091v2.809a14.761,14.761,0,0,1,13.306,13.282m-5.151-2.6H248.326a10.362,10.362,0,0,1,8.157-6.238V17.166a13.086,13.086,0,0,0-11.624,11.6H270.87a13.087,13.087,0,0,0-11.623-11.6v2.757a10.361,10.361,0,0,1,8.155,6.238m7.965,4.983h-16.12v7.4H261.9l-2.65,1.62h0v7.123c.072,0,.146-.011.22-.019l.041,0,.209-.02c.016,0,.03-.005.045-.006.069-.006.137-.015.207-.024h.009l.213-.027.049-.007c.068-.008.134-.017.2-.028l.053-.007c.06-.009.121-.018.182-.03a.2.2,0,0,0,.045-.006l.182-.031.063-.011.186-.034c.023,0,.046-.01.069-.013.05-.011.1-.021.15-.03l.086-.018c.049-.009.1-.021.148-.03a.693.693,0,0,1,.08-.018c.056-.015.112-.026.168-.038.031-.009.057-.015.088-.022s.077-.017.114-.028l.13-.031c.034-.01.074-.019.111-.029s.064-.017.1-.026c.053-.014.1-.026.151-.04l.1-.029c.028-.009.057-.017.087-.025l.163-.048c.027-.009.054-.016.081-.025l.109-.033.093-.03.156-.05c.024-.007.047-.017.073-.024.058-.02.117-.039.176-.06.023-.009.045-.016.068-.023l.111-.039h0a17.6,17.6,0,0,0,8.253-6.159h-7.641l2.65-1.62h6.048a17.635,17.635,0,0,0,1.228-2.606H271.3l3.682-2.249a17.619,17.619,0,0,0,.383-2.546m-9.779,11.132v.088a14.8,14.8,0,0,1-3.35,1.522l-.125.038c-.02,0-.038.011-.058.016-.038.011-.079.023-.116.034l-.06.016a.149.149,0,0,1-.031.01V42.276Zm.568-6.337H261.85V33.748h7.892Zm-9.675-4.795H240.361a17.443,17.443,0,0,0,2.286,7.4H249.1v3.121a14.905,14.905,0,0,1-1.735-1.5H243.7a17.46,17.46,0,0,0,5,4.6l.025.016.094.058a17.483,17.483,0,0,0,7.174,2.409l.04,0,.083.007c.122.013.245.025.369.034V44.482l-.125-.012h0l-.063-.009a14.817,14.817,0,0,1-4.583-1.26v-.924h4.706V40.165h-4.706v-1.62h4.775Zm-2.6,4.795h-9.43a14.429,14.429,0,0,1-.8-2.191h10.233Zm2.6-20.456V12.675a17.559,17.559,0,0,0-16.116,16.091h2.806a14.764,14.764,0,0,1,13.31-13.282" transform="translate(-202.339 -10.67)" fill="#df1808"/>
    </g>
  </g>
</svg>
